# xmcd
#
# Track frame offsets:
#	150
#	16533
#	31264
#	44099
#	61598
#	78900
#	90502
#	100475
#	120843
#	129774
#	140033
#	156278
#	169857
#	203247
#
# Disc length: 2982 seconds
#
# Revision: 0
# Processed by: cddbd v1.4PL0 Copyright (c) Steve Scherf et al.
# Submitted via: dBpowerAMP V4.0
#
DISCID=a80ba40e
DTITLE=François Corbier - Toi, ma guitare et moi
DYEAR=2003
DGENRE=Cabaret
TTITLE0=La galère capitaine (version radio)
TTITLE1=La tempête
TTITLE2=Au bistrot de la superette
TTITLE3=Les lunes de Mme W.
TTITLE4=Les épinards
TTITLE5=Chronique Sida
TTITLE6=Cui-Cui
TTITLE7=Ne nous flashons pas
TTITLE8=Medley
TTITLE9=Starblues
TTITLE10=J'arrive chez elle
TTITLE11=Plante un jardin
TTITLE12=La galère capitaine (version longue)
TTITLE13=Courrier du coeur
EXTD=
EXTT0=
EXTT1=
EXTT2=
EXTT3=
EXTT4=
EXTT5=
EXTT6=
EXTT7=
EXTT8=
EXTT9=
EXTT10=
EXTT11=
EXTT12=
EXTT13=
PLAYORDER=
